<?xml version="1.0" encoding="utf-8"?>
<!-- Generator: Adobe Illustrator 22.0.1, SVG Export Plug-In . SVG Version: 6.00 Build 0)  -->
<svg version="1.1" id="Слой_1" xmlns="http://www.w3.org/2000/svg" xmlns:xlink="http://www.w3.org/1999/xlink" x="0px" y="0px"
	 viewBox="0 0 22 28" style="enable-background:new 0 0 22 28;" xml:space="preserve">
<style type="text/css">
	.st0{fill:#A8AEB2;}
</style>
<title>logo</title>
<desc>Created with Sketch.</desc>
<path id="logo" class="st0" d="M20.1,24.1c-1.1,1.6-2.3,3.3-4.1,3.3c-1.8,0-2.4-1.1-4.5-1.1c-2.1,0-2.7,1-4.4,1.1
	c-1.8,0.1-3.1-1.8-4.3-3.4c-2.3-3.3-4.1-9.4-1.7-13.6c1.2-2,3.3-3.3,5.6-3.4c1.7,0,3.4,1.2,4.5,1.2c1.1,0,3.1-1.4,5.2-1.2
	c0.9,0,3.4,0.4,4.9,2.7c-0.1,0.1-3,1.7-2.9,5.1c0,4.1,3.6,5.4,3.6,5.4C22,20.4,21.4,22.2,20.1,24.1z M12.4,2.6c1-1.1,2.6-2,4-2
	c0.2,1.6-0.5,3.2-1.4,4.3c-0.9,1.1-2.5,2-4,1.9C10.8,5.2,11.5,3.6,12.4,2.6z"/>
</svg>
