<?xml version="1.0" encoding="utf-8"?>
<!-- Generator: Adobe Illustrator 22.0.1, SVG Export Plug-In . SVG Version: 6.00 Build 0)  -->
<svg version="1.1" id="Слой_1" xmlns="http://www.w3.org/2000/svg" xmlns:xlink="http://www.w3.org/1999/xlink" x="0px" y="0px"
	 viewBox="0 0 34 25" style="enable-background:new 0 0 34 25;" xml:space="preserve">
<style type="text/css">
	.st0{fill:#A8AEB2;}
	.st1{fill:#FFFFFF;}
</style>
<g id="Rectangle-41">
	<path class="st0" d="M4.5,0h25C32,0,34,2,34,4.5v16c0,2.5-2,4.5-4.5,4.5h-25C2,25,0,23,0,20.5v-16C0,2,2,0,4.5,0z"/>
</g>
<g id="Rectangle-6">
	<path class="st1" d="M20.5,20h-7c-1.4,0-2.5-1.1-2.5-2.5v-11C11,5.1,12.1,4,13.5,4h7C21.9,4,23,5.1,23,6.5v11
		C23,18.9,21.9,20,20.5,20z M13.5,5C12.7,5,12,5.7,12,6.5v11c0,0.8,0.7,1.5,1.5,1.5h7c0.8,0,1.5-0.7,1.5-1.5v-11
		C22,5.7,21.3,5,20.5,5H13.5z"/>
</g>
<g id="Rectangle-9">
	<rect x="22" y="8" class="st1" width="12" height="1"/>
</g>
<g id="Rectangle-9_1_">
	<rect x="17" class="st1" width="1" height="5"/>
</g>
<g id="Rectangle-9_2_">
	<rect x="17" y="20" class="st1" width="1" height="5"/>
</g>
<g id="Rectangle-9_3_">
	<rect x="22" y="13" class="st1" width="12" height="1"/>
</g>
<g id="Rectangle-9_4_">
	<rect x="22" y="17" class="st1" width="12" height="1"/>
</g>
<g id="Rectangle-9_5_">
	<rect y="8" class="st1" width="12" height="1"/>
</g>
<g id="Rectangle-9_6_">
	<rect y="13" class="st1" width="12" height="1"/>
</g>
<g id="Rectangle-9_7_">
	<rect y="17" class="st1" width="12" height="1"/>
</g>
</svg>
