<?xml version="1.0" encoding="UTF-8"?>
<svg width="35px" height="24px" viewBox="0 0 35 24" version="1.1" xmlns="http://www.w3.org/2000/svg" xmlns:xlink="http://www.w3.org/1999/xlink">
    <!-- Generator: Sketch 42 (36781) - http://www.bohemiancoding.com/sketch -->
    <title>chip-icon</title>
    <desc>Created with Sketch.</desc>
    <defs></defs>
    <g id="Finance-credit-card" stroke="none" stroke-width="1" fill="none" fill-rule="evenodd">
        <g id="Finance-credit-card---1200" transform="translate(-222.000000, -1972.000000)" fill-rule="nonzero" fill="#BEBEBE">
            <g id="itm-3" transform="translate(117.000000, 1696.000000)">
                <g id="Group-23" transform="translate(18.000000, 274.000000)">
                    <g id="chip-icon" transform="translate(87.000000, 2.000000)">
                        <g id="F7811616-8428-41A3-B329-296E357A0A28">
                            <g id="Welcome">
                                <g id="Кредитные-карты-Desktop-HD">
                                    <g id="Page-1">
                                        <polygon id="Fill-1" points="23.031 14.8345 34.088 14.8345 34.088 8.6195 23.031 8.6195"></polygon>
                                        <path d="M11.0561,5.2078 C11.0561,4.0248 12.0181,3.0628 13.2011,3.0628 L20.8861,3.0628 C22.0691,3.0628 23.0311,4.0248 23.0311,5.2078 L23.0311,7.1888 L34.0891,7.1888 L34.0891,2.8598 C34.0891,1.2868 32.8021,-0.000199999999 31.2291,-0.000199999999 L2.8601,-0.000199999999 C1.2871,-0.000199999999 0.0001,1.2868 0.0001,2.8598 L0.0001,7.1888 L11.0561,7.1888 L11.0561,5.2078 Z" id="Fill-2"></path>
                                        <path d="M23.0313,18.2442 C23.0313,19.4272 22.0693,20.3892 20.8863,20.3892 L13.2013,20.3892 C12.0183,20.3892 11.0563,19.4272 11.0563,18.2442 L11.0563,16.2642 L0.0003,16.2642 L0.0003,20.5932 C0.0003,22.1652 1.2863,23.4522 2.8593,23.4522 L31.2293,23.4522 C32.8013,23.4522 34.0883,22.1652 34.0883,20.5932 L34.0883,16.2642 L23.0313,16.2642 L23.0313,18.2442 Z" id="Fill-5"></path>
                                        <polygon id="Fill-7" points="0 14.8345 11.056 14.8345 11.056 8.6185 0 8.6185"></polygon>
                                        <path d="M20.8865,4.4928 L13.2005,4.4928 C12.8075,4.4928 12.4855,4.8128 12.4855,5.2078 L12.4855,7.1888 L12.4855,8.6188 L12.4855,14.8338 L12.4855,16.2638 L12.4855,18.2438 C12.4855,18.6388 12.8075,18.9588 13.2005,18.9588 L20.8865,18.9588 C21.2805,18.9588 21.6015,18.6388 21.6015,18.2438 L21.6015,16.2638 L21.6015,14.8338 L21.6015,8.6188 L21.6015,7.1888 L21.6015,5.2078 C21.6015,4.8128 21.2805,4.4928 20.8865,4.4928" id="Fill-9"></path>
                                    </g>
                                </g>
                            </g>
                        </g>
                    </g>
                </g>
            </g>
        </g>
    </g>
</svg>