<?xml version="1.0" encoding="utf-8"?>
<!-- Generator: Adobe Illustrator 22.0.1, SVG Export Plug-In . SVG Version: 6.00 Build 0)  -->
<svg version="1.1" id="Слой_1" xmlns="http://www.w3.org/2000/svg" xmlns:xlink="http://www.w3.org/1999/xlink" x="0px" y="0px"
	 viewBox="0 0 29 18" style="enable-background:new 0 0 29 18;" xml:space="preserve">
<style type="text/css">
	.st0{fill:#545CA4;}
</style>
<g id="Rectangle-17">
	<path class="st0" d="M25.5,18h-23C1.1,18,0,16.9,0,15.5v-13C0,1.1,1.1,0,2.5,0h23C26.9,0,28,1.1,28,2.5v13C28,16.9,26.9,18,25.5,18
		z M2.5,1C1.7,1,1,1.7,1,2.5v13C1,16.3,1.7,17,2.5,17h23c0.8,0,1.5-0.7,1.5-1.5v-13C27,1.7,26.3,1,25.5,1H2.5z"/>
</g>
<g id="Line-3">
	<rect y="4" class="st0" width="27.8" height="1"/>
</g>
<g id="Line-3_1_">
	<rect y="7" class="st0" width="27.8" height="1"/>
</g>
<g id="Line-3-Copy">
	<rect x="3.5" y="12.5" class="st0" width="13" height="1"/>
</g>
</svg>
