<?xml version="1.0" encoding="UTF-8"?>
<svg width="17px" height="13px" viewBox="0 0 17 13" version="1.1" xmlns="http://www.w3.org/2000/svg" xmlns:xlink="http://www.w3.org/1999/xlink">
    <!-- Generator: Sketch 50.2 (55047) - http://www.bohemiancoding.com/sketch -->
    <title>Group 5</title>
    <desc>Created with Sketch.</desc>
    <defs></defs>
    <g id="Page-1" stroke="none" stroke-width="1" fill="none" fill-rule="evenodd">
        <g id="Microcredits-mobile-New-Filter" transform="translate(-10.000000, -56.000000)" fill="#7C7E82" fill-rule="nonzero">
            <g id="Group-5" transform="translate(10.000000, 56.000000)">
                <path d="M8.67896197,1.37992955 L1.77813092,7.28601933 C1.56833424,7.46557423 1.25270242,7.44105842 1.07314752,7.23126174 C0.893592613,7.02146505 0.918108421,6.70583323 1.1279051,6.52627833 L8.35384906,0.34194003 C8.54099903,0.181767361 8.81692491,0.181767361 9.00407488,0.34194003 L16.2300188,6.52627833 C16.4398155,6.70583323 16.4643313,7.02146505 16.2847764,7.23126174 C16.1052215,7.44105842 15.7895897,7.46557423 15.579793,7.28601933 L8.67896197,1.37992955 Z" id="Path-49"></path>
                <path d="M7.67897495,8.72436938 L7.67897495,12.0356634 C7.67897495,12.3118057 7.45511733,12.5356634 7.17897495,12.5356634 L3.20917012,12.5356634 C2.93302774,12.5356634 2.70917012,12.3118057 2.70917012,12.0356634 L2.70917012,5.57611469 L3.70917012,5.57611469 L3.70917012,11.5356634 L6.67897495,11.5356634 L6.67897495,8.22436938 C6.67897495,7.94822701 6.90283258,7.72436938 7.17897495,7.72436938 L10.3278699,7.72436938 C10.6040122,7.72436938 10.8278699,7.94822701 10.8278699,8.22436938 L10.8278699,11.5450514 L13.6129389,11.5450514 L13.6129389,5.57611469 L14.6129389,5.57611469 L14.6129389,12.0450514 C14.6129389,12.3211938 14.3890813,12.5450514 14.1129389,12.5450514 L10.3278699,12.5450514 C10.0517275,12.5450514 9.82786987,12.3211938 9.82786987,12.0450514 L9.82786987,8.72436938 L7.67897495,8.72436938 Z" id="Path-50"></path>
            </g>
        </g>
    </g>
</svg>