<?xml version="1.0" encoding="UTF-8"?>
<svg width="43px" height="26px" viewBox="0 0 43 26" version="1.1" xmlns="http://www.w3.org/2000/svg" xmlns:xlink="http://www.w3.org/1999/xlink">
    <!-- Generator: Sketch 42 (36781) - http://www.bohemiancoding.com/sketch -->
    <title>mastercard-icon</title>
    <desc>Created with Sketch.</desc>
    <defs>
        <polygon id="path-1" points="21.1505 0.546 0.0005 0.546 0.0005 25.9998 21.1505 25.9998"></polygon>
    </defs>
    <g id="Finance-credit-card" stroke="none" stroke-width="1" fill="none" fill-rule="evenodd">
        <g id="Finance-credit-card---1200" transform="translate(-275.000000, -1971.000000)">
            <g id="itm-3" transform="translate(117.000000, 1696.000000)">
                <g id="Group-23" transform="translate(18.000000, 274.000000)">
                    <g id="mastercard-icon" transform="translate(140.000000, 0.000000)">
                        <g id="195E42DC-3541-4424-89B1-B8C5919332CE">
                            <g id="Welcome">
                                <g id="Дебетовые-карты-Desktop-HD">
                                    <g id="Group-7">
                                        <g id="Page-1">
                                            <path d="M16.5622,15.2888 C16.5402,15.3768 16.5402,15.4418 16.5402,15.5078 C16.5402,15.7698 16.6712,15.8788 16.9992,15.8788 C17.0572,15.8788 17.1082,15.8768 17.1582,15.8748 C17.0402,15.1798 16.9762,14.4668 16.9762,13.7378 C16.9762,13.5248 16.9922,13.3148 17.0022,13.1038 L16.9332,13.1038 L16.5622,15.2888 Z" id="Fill-1" fill="#BEBEBE" fill-rule="nonzero"></path>
                                            <g id="Group-5" transform="translate(0.000000, 0.453800)">
                                                <g id="Fill-3-Clipped">
                                                    <mask id="mask-2" fill="white">
                                                        <use xlink:href="#path-1"></use>
                                                    </mask>
                                                    <g id="path-1"></g>
                                                    <path d="M13.9835,13.4808 C14.6605,13.8088 14.9445,14.2238 14.9445,14.9448 C14.9445,16.1458 14.2675,16.6928 12.8255,16.6928 C12.6505,16.6928 12.3885,16.6928 12.0825,16.6488 C11.9075,16.6488 11.7985,16.6268 11.7115,16.6048 L11.4705,16.5608 L11.4055,16.5398 L11.6025,15.3378 C12.0395,15.4688 12.4105,15.5338 12.8255,15.5338 C13.3715,15.5338 13.6125,15.3818 13.6125,15.0538 C13.6125,14.8348 13.5245,14.7478 12.9565,14.4858 C12.2355,14.1368 11.9295,13.6768 11.9295,13.0218 C11.9075,12.0608 12.4535,11.2518 13.9835,11.2518 C14.2895,11.2518 14.8355,11.2958 15.1855,11.3608 L14.9885,12.5628 C14.6385,12.5188 14.2675,12.4978 14.0055,12.4978 C13.5685,12.4978 13.3275,12.6288 13.3275,12.9128 C13.3275,13.1528 13.3935,13.2188 13.9835,13.4808 L13.9835,13.4808 Z M11.1655,16.0148 L11.1425,16.2768 L11.1215,16.4738 L11.0995,16.6048 L9.9635,16.6048 L9.9855,16.0588 C9.6355,16.4958 9.1765,16.6928 8.5435,16.6928 C7.8005,16.6928 7.2975,16.1248 7.2975,15.2718 C7.2975,13.9828 8.1715,13.2398 9.7015,13.2398 C9.8535,13.2398 10.0505,13.2618 10.2695,13.2848 C10.3135,13.1088 10.3135,13.0438 10.3135,12.9558 C10.3135,12.6068 10.0725,12.4758 9.4395,12.4758 C9.0455,12.4758 8.6095,12.5188 8.3025,12.6068 L8.1055,12.6718 L7.9755,12.6938 L8.1715,11.5138 C8.8485,11.3178 9.3075,11.2518 9.8105,11.2518 C10.9905,11.2518 11.6235,11.7758 11.6235,12.7808 C11.6235,13.0438 11.6025,13.2398 11.5145,13.8308 L11.2085,15.6878 L11.1655,16.0148 Z M5.3535,16.6048 L6.1395,11.6458 L4.3695,16.6048 L3.4295,16.6048 L3.3215,11.6888 L2.4905,16.6048 L1.2235,16.6048 L2.2945,10.1598 L4.2605,10.1598 L4.3265,14.1588 L5.6365,10.1598 L7.7785,10.1598 L6.7075,16.6048 L5.3535,16.6048 Z M19.8815,21.3678 L19.8605,21.3678 C19.6075,21.0518 19.3795,20.7298 19.1555,20.3958 C19.1045,20.3208 19.0535,20.2468 19.0045,20.1698 C18.9695,20.1168 18.9345,20.0678 18.8995,20.0138 L18.9075,20.0138 C18.6285,19.5678 18.3835,19.0988 18.1595,18.6168 C17.9865,18.2318 17.8175,17.8438 17.6765,17.4418 C17.6625,17.4028 17.6455,17.3658 17.6325,17.3258 L17.6345,17.3258 C17.4895,16.8938 17.3755,16.4478 17.2775,15.9968 L17.1955,16.5398 C16.8235,16.6698 16.5175,16.7138 16.2125,16.7138 C15.5135,16.7138 15.1195,16.3208 15.1195,15.5558 C15.1195,15.4248 15.1415,15.2508 15.1635,15.0978 L15.2505,14.5728 L15.3165,14.1588 L15.9065,10.5748 L17.2605,10.5748 L17.1075,11.3608 L17.1265,11.3608 C17.2015,10.8688 17.3075,10.3888 17.4375,9.9168 C17.4965,9.6988 17.5605,9.4838 17.6245,9.2688 C17.6265,9.2598 17.6295,9.2508 17.6325,9.2418 L17.6335,9.2418 C17.7895,8.7778 17.9735,8.3258 18.1785,7.8868 L18.1785,7.8868 C18.1805,7.8818 18.1835,7.8768 18.1865,7.8718 C18.3695,7.4808 18.5725,7.1008 18.7935,6.7328 C18.8305,6.6678 18.8615,6.5978 18.8995,6.5328 L18.9165,6.5328 C19.2075,6.0678 19.5245,5.6228 19.8705,5.1998 L19.8605,5.1998 C19.9425,5.0998 20.0325,5.0058 20.1185,4.9088 C20.1825,4.8338 20.2475,4.7598 20.3135,4.6878 C20.4105,4.5808 20.5105,4.4748 20.6115,4.3708 C20.7865,4.1908 20.9655,4.0148 21.1505,3.8458 C18.8995,1.8128 15.9285,0.5458 12.6505,0.5458 C5.6805,0.5458 0.0005,6.2488 0.0005,13.2848 C0.0005,20.2978 5.6805,25.9998 12.6505,25.9998 C15.9285,25.9998 18.8995,24.7548 21.1505,22.7008 C20.6955,22.2888 20.2725,21.8428 19.8815,21.3678 L19.8815,21.3678 Z" id="Fill-3" fill="#BEBEBE" fill-rule="nonzero" mask="url(#mask-2)"></path>
                                                </g>
                                            </g>
                                            <path d="M8.6302,15.5077 C8.6302,15.8357 8.8052,16.0327 9.1112,16.0327 C9.6792,16.0327 10.0722,15.5077 10.0942,14.7207 C9.9632,14.7207 9.8982,14.6987 9.7882,14.6987 C9.0232,14.6987 8.6302,14.9827 8.6302,15.5077" id="Fill-6" fill="#BEBEBE" fill-rule="nonzero"></path>
                                            <path d="M29.6269,0.9997 C26.3709,0.9997 23.3779,2.2447 21.1499,4.2987 C20.9649,4.4687 20.7869,4.6447 20.6119,4.8237 C20.5099,4.9277 20.4109,5.0337 20.3129,5.1417 C20.2469,5.2137 20.1829,5.2877 20.1179,5.3617 C20.0349,5.4587 19.9509,5.5547 19.8699,5.6537 L22.4169,5.6537 C22.7679,6.0687 23.0949,6.5277 23.3779,6.9867 L18.9169,6.9867 C18.8749,7.0527 18.8339,7.1197 18.7929,7.1867 C18.5719,7.5547 18.3699,7.9347 18.1859,8.3257 C18.1839,8.3307 18.1809,8.3357 18.1789,8.3407 L24.1219,8.3407 C24.3179,8.7777 24.4919,9.2367 24.6459,9.6957 L17.6339,9.6957 C17.6309,9.7047 17.6269,9.7137 17.6239,9.7227 C17.5539,9.9347 17.4969,10.1527 17.4369,10.3707 C17.3789,10.5857 17.3259,10.8047 17.2829,11.0287 L25.0159,11.0287 C25.1049,11.4867 25.1919,11.9247 25.2359,12.3827 C25.2399,12.4247 25.2389,12.4707 25.2419,12.5127 C25.7329,11.2657 26.7279,10.4827 27.9879,10.4827 C28.2289,10.4827 28.4469,10.5047 28.6219,10.5477 L29.1689,10.6787 C29.3429,10.7447 29.3879,10.7667 29.5179,10.8097 L29.2769,12.2087 C28.7969,11.9677 28.4469,11.8587 28.0539,11.8587 C27.0269,11.8587 26.3069,12.8637 26.3069,14.2847 C26.3069,15.2677 26.7879,15.8567 27.5959,15.8567 C27.9229,15.8567 28.3169,15.7477 28.7529,15.5297 L28.5139,16.9937 C28.0109,17.1237 27.6839,17.1897 27.3119,17.1897 C26.2629,17.1897 25.5059,16.6477 25.1469,15.7277 C25.1069,15.9637 25.0619,16.1977 25.0159,16.4247 C24.9089,16.8847 24.7989,17.3427 24.6459,17.7797 L17.6339,17.7797 C17.6469,17.8187 17.6629,17.8567 17.6759,17.8957 C17.8159,18.2987 17.9819,18.6877 18.1599,19.0707 C18.1659,19.0847 18.1719,19.0987 18.1779,19.1127 L24.1219,19.1127 C23.9039,19.5937 23.6619,20.0297 23.3779,20.4677 L18.9079,20.4677 C18.9399,20.5197 18.9709,20.5727 19.0049,20.6237 C19.0539,20.7007 19.1049,20.7747 19.1559,20.8497 C19.3829,21.1857 19.6239,21.5107 19.8809,21.8217 L22.4169,21.8217 C22.0239,22.3027 21.6089,22.7397 21.1499,23.1547 C23.3779,25.2087 26.3709,26.4537 29.6269,26.4537 C36.6189,26.4537 42.2779,20.7507 42.2779,13.7377 C42.2779,6.7027 36.6189,0.9997 29.6269,0.9997 Z M32.8389,16.1417 L32.7959,16.4677 L32.7529,16.7307 L32.7299,16.9277 L32.7299,17.0587 L31.5939,17.0587 L31.6159,16.5117 C31.2669,16.9497 30.8079,17.1467 30.1739,17.1467 C29.4309,17.1467 28.9279,16.5777 28.9279,15.7257 C28.9279,14.4367 29.8019,13.6937 31.3309,13.6937 C31.4849,13.6937 31.6819,13.7157 31.8779,13.7377 C31.9219,13.5627 31.9439,13.4977 31.9439,13.4097 C31.9439,13.0607 31.7029,12.9287 31.0689,12.9287 C30.6769,12.9287 30.2179,12.9727 29.9119,13.0607 L29.7369,13.1257 L29.6059,13.1477 L29.8019,11.9677 C30.4799,11.7717 30.9379,11.7057 31.4409,11.7057 C32.6209,11.7057 33.2319,12.2297 33.2319,13.2347 C33.2319,13.4977 33.2319,13.6937 33.1229,14.2847 L32.8389,16.1417 Z M34.5429,17.0587 L33.1889,17.0587 L34.0189,11.8147 L35.2649,11.8147 L35.1339,12.6237 C35.5489,11.9897 35.8109,11.7717 36.2699,11.7717 L36.4009,11.7717 L36.4439,11.7927 C36.2259,12.2087 36.0509,12.6677 35.9199,13.3007 L35.8319,13.3007 C35.1779,13.3007 35.0469,13.8467 34.5429,17.0587 Z M38.6949,17.0587 L38.7609,16.5557 C38.3889,16.9497 37.9959,17.1237 37.4929,17.1237 C36.4879,17.1237 35.8319,16.2717 35.8319,14.9607 C35.8319,13.2127 36.8589,11.7277 38.0619,11.7277 C38.6079,11.7277 39.0009,11.9677 39.3719,12.4487 L39.6789,10.6137 L41.0329,10.6137 L39.9839,17.0587 L38.6949,17.0587 Z" id="Combined-Shape" fill="#D3D3D3" fill-rule="nonzero"></path>
                                            <path d="M24.6459,9.6955 C24.4919,9.2365 24.3179,8.7775 24.1219,8.3405 L18.1789,8.3405 C17.9729,8.7795 17.7899,9.2315 17.6339,9.6955 L24.6459,9.6955 Z" id="Fill-11" fill="#BEBEBE" fill-rule="nonzero"></path>
                                            <path d="M24.6459,9.6955 C24.4919,9.2365 24.3179,8.7775 24.1219,8.3405 L18.1789,8.3405 C17.9729,8.7795 17.7899,9.2315 17.6339,9.6955 L24.6459,9.6955 Z" id="Fill-13" fill="#BEBEBE" fill-rule="nonzero"></path>
                                            <path d="M23.3782,20.4677 C23.6622,20.0297 23.9042,19.5937 24.1222,19.1127 L18.1782,19.1127 C18.1722,19.0987 18.1662,19.0847 18.1592,19.0707 C18.3832,19.5517 18.6282,20.0207 18.9072,20.4677 L23.3782,20.4677 Z" id="Fill-15" fill="#BEBEBE" fill-rule="nonzero"></path>
                                            <path d="M23.3782,20.4677 C23.6622,20.0297 23.9042,19.5937 24.1222,19.1127 L18.1782,19.1127 C18.1722,19.0987 18.1662,19.0847 18.1592,19.0707 C18.3832,19.5517 18.6282,20.0207 18.9072,20.4677 L23.3782,20.4677 Z" id="Fill-17" fill="#BEBEBE" fill-rule="nonzero"></path>
                                            <path d="M17.6761,17.8955 C17.8181,18.2975 17.9871,18.6855 18.1601,19.0705 C17.9821,18.6875 17.8151,18.2985 17.6761,17.8955" id="Fill-19" fill="#BEBEBE" fill-rule="nonzero"></path>
                                            <path d="M17.6761,17.8955 C17.8181,18.2975 17.9871,18.6855 18.1601,19.0705 C17.9821,18.6875 17.8151,18.2985 17.6761,17.8955" id="Fill-21" fill="#BEBEBE" fill-rule="nonzero"></path>
                                            <path d="M23.3782,6.9866 C23.0942,6.5276 22.7672,6.0686 22.4162,5.6536 L19.8702,5.6536 C19.5242,6.0766 19.2072,6.5216 18.9162,6.9866 L23.3782,6.9866 Z" id="Fill-23" fill="#BEBEBE" fill-rule="nonzero"></path>
                                            <path d="M23.3782,6.9866 C23.0942,6.5276 22.7672,6.0686 22.4162,5.6536 L19.8702,5.6536 C19.5242,6.0766 19.2072,6.5216 18.9162,6.9866 L23.3782,6.9866 Z" id="Fill-25" fill="#BEBEBE" fill-rule="nonzero"></path>
                                            <path d="M20.0359,11.6839 C21.1719,11.6839 21.8929,12.4269 21.8929,13.5849 C21.8929,13.9789 21.8489,14.3489 21.7179,14.8959 L19.0089,14.8959 C18.9869,14.9609 18.9869,15.0049 18.9869,15.0489 C18.9869,15.6609 19.4019,15.9669 20.1889,15.9669 C20.6909,15.9669 21.1279,15.8789 21.6089,15.6389 L21.3909,16.9499 C20.9099,17.1029 20.4729,17.1679 19.9699,17.1679 C18.4409,17.1679 17.6539,16.3599 17.6539,14.8089 C17.6539,13.0169 18.6589,11.6839 20.0359,11.6839 L20.0359,11.6839 Z M23.9679,11.8149 L23.8369,12.6229 C24.2529,11.9899 24.5149,11.7709 24.9739,11.7709 L25.1049,11.7709 L25.1479,11.7929 C24.9299,12.2089 24.7549,12.6669 24.6239,13.3009 L24.5369,13.3009 C23.8809,13.3009 23.7499,13.8469 23.2479,17.0589 L21.8719,17.0589 L22.7229,11.8149 L23.9679,11.8149 Z M17.8069,11.8149 L17.6319,13.1039 L17.0019,13.1039 C16.9919,13.3149 16.9769,13.5249 16.9769,13.7379 C16.9769,14.4669 17.0399,15.1799 17.1589,15.8749 C17.2409,15.8709 17.3159,15.8619 17.3709,15.8359 L17.2769,16.4509 C17.3759,16.9019 17.4889,17.3479 17.6339,17.7799 L24.6459,17.7799 C24.7989,17.3429 24.9089,16.8839 25.0159,16.4249 C25.0619,16.1979 25.1069,15.9639 25.1469,15.7279 C24.9969,15.3439 24.9089,14.9009 24.9089,14.3929 C24.9089,13.6939 25.0279,13.0589 25.2419,12.5129 C25.2389,12.4709 25.2399,12.4249 25.2359,12.3829 C25.1919,11.9239 25.1049,11.4869 25.0159,11.0279 L17.2829,11.0279 C17.3259,10.8049 17.3789,10.5859 17.4369,10.3699 C17.3079,10.8419 17.2009,11.3229 17.1259,11.8149 L17.8069,11.8149 Z" id="Fill-27" fill="#BEBEBE" fill-rule="nonzero"></path>
                                            <path d="M20.0359,11.6839 C21.1719,11.6839 21.8929,12.4269 21.8929,13.5849 C21.8929,13.9789 21.8489,14.3489 21.7179,14.8959 L19.0089,14.8959 C18.9869,14.9609 18.9869,15.0049 18.9869,15.0489 C18.9869,15.6609 19.4019,15.9669 20.1889,15.9669 C20.6909,15.9669 21.1279,15.8789 21.6089,15.6389 L21.3909,16.9499 C20.9099,17.1029 20.4729,17.1679 19.9699,17.1679 C18.4409,17.1679 17.6539,16.3599 17.6539,14.8089 C17.6539,13.0169 18.6589,11.6839 20.0359,11.6839 L20.0359,11.6839 Z M23.9679,11.8149 L23.8369,12.6229 C24.2529,11.9899 24.5149,11.7709 24.9739,11.7709 L25.1049,11.7709 L25.1479,11.7929 C24.9299,12.2089 24.7549,12.6669 24.6239,13.3009 L24.5369,13.3009 C23.8809,13.3009 23.7499,13.8469 23.2479,17.0589 L21.8719,17.0589 L22.7229,11.8149 L23.9679,11.8149 Z M17.8069,11.8149 L17.6319,13.1039 L17.0019,13.1039 C16.9919,13.3149 16.9769,13.5249 16.9769,13.7379 C16.9769,14.4669 17.0399,15.1799 17.1589,15.8749 C17.2409,15.8709 17.3159,15.8619 17.3709,15.8359 L17.2769,16.4509 C17.3759,16.9019 17.4889,17.3479 17.6339,17.7799 L24.6459,17.7799 C24.7989,17.3429 24.9089,16.8839 25.0159,16.4249 C25.0619,16.1979 25.1069,15.9639 25.1469,15.7279 C24.9969,15.3439 24.9089,14.9009 24.9089,14.3929 C24.9089,13.6939 25.0279,13.0589 25.2419,12.5129 C25.2389,12.4709 25.2399,12.4249 25.2359,12.3829 C25.1919,11.9239 25.1049,11.4869 25.0159,11.0279 L17.2829,11.0279 C17.3259,10.8049 17.3789,10.5859 17.4369,10.3699 C17.3079,10.8419 17.2009,11.3229 17.1259,11.8149 L17.8069,11.8149 Z" id="Fill-29" fill="#BEBEBE" fill-rule="nonzero"></path>
                                            <path d="M20.6256,13.5628 C20.6256,13.1258 20.3856,12.8848 19.9696,12.8848 C19.5326,12.8848 19.2276,13.2128 19.0966,13.8248 L20.6256,13.8248 L20.6256,13.5628 Z" id="Fill-31" fill="#BEBEBE" fill-rule="nonzero"></path>
                                            <path d="M20.6256,13.5628 C20.6256,13.1258 20.3856,12.8848 19.9696,12.8848 C19.5326,12.8848 19.2276,13.2128 19.0966,13.8248 L20.6256,13.8248 L20.6256,13.5628 Z" id="Fill-33" fill="#BEBEBE" fill-rule="nonzero"></path>
                                            <path d="M17.6242,9.7225 C17.5602,9.9375 17.4962,10.1525 17.4372,10.3705 C17.4962,10.1535 17.5532,9.9345 17.6242,9.7225" id="Fill-35" fill="#BEBEBE" fill-rule="nonzero"></path>
                                            <path d="M17.6242,9.7225 C17.5602,9.9375 17.4962,10.1525 17.4372,10.3705 C17.4962,10.1535 17.5532,9.9345 17.6242,9.7225" id="Fill-37" fill="#BEBEBE" fill-rule="nonzero"></path>
                                            <path d="M22.4164,21.822 L19.8814,21.822 C20.2724,22.296 20.6954,22.743 21.1504,23.155 C21.6084,22.739 22.0234,22.303 22.4164,21.822" id="Fill-39" fill="#BEBEBE" fill-rule="nonzero"></path>
                                            <path d="M22.4164,21.822 L19.8814,21.822 C20.2724,22.296 20.6954,22.743 21.1504,23.155 C21.6084,22.739 22.0234,22.303 22.4164,21.822" id="Fill-41" fill="#BEBEBE" fill-rule="nonzero"></path>
                                            <path d="M38.3231,13.0386 C37.7121,13.0386 37.2541,13.7596 37.2541,14.7866 C37.2541,15.4856 37.4931,15.8356 37.9731,15.8356 C38.6081,15.8356 39.0441,15.0926 39.0441,14.0656 C39.0441,13.3876 38.8041,13.0386 38.3231,13.0386" id="Fill-43" fill="#D3D3D3" fill-rule="nonzero"></path>
                                            <path d="M30.239,15.5077 C30.239,15.8357 30.436,16.0327 30.742,16.0327 C31.289,16.0327 31.703,15.5077 31.725,14.7207 C31.573,14.7207 31.506,14.6987 31.419,14.6987 C30.632,14.6987 30.239,14.9827 30.239,15.5077" id="Fill-45" fill="#D3D3D3" fill-rule="nonzero"></path>
                                        </g>
                                    </g>
                                </g>
                            </g>
                        </g>
                    </g>
                </g>
            </g>
        </g>
    </g>
</svg>