<?xml version="1.0" encoding="UTF-8" standalone="no"?>
<svg width="22px" height="23px" viewBox="0 0 22 23" version="1.1" xmlns="http://www.w3.org/2000/svg" xmlns:xlink="http://www.w3.org/1999/xlink">
    <!-- Generator: Sketch 43.2 (39069) - http://www.bohemiancoding.com/sketch -->
    <title>Shape Copy 2</title>
    <desc>Created with Sketch.</desc>
    <defs></defs>
    <g id="Finance-credit-card" stroke="none" stroke-width="1" fill="none" fill-rule="evenodd">
        <g id="Finance-credit-card---card-page---1200" transform="translate(-382.000000, -482.000000)" fill-rule="nonzero" fill="#ABACAD">
            <g id="volume-high" transform="translate(382.000000, 453.000000)">
                <path d="M15.6063713,51.7039006 C15.2600747,51.7039006 14.9139473,51.5742231 14.6496728,51.314813 C14.1214056,50.7958265 14.1214056,49.9544737 14.6496728,49.4354872 C17.1198051,47.0091022 18.4802438,43.7833352 18.4802438,40.351978 C18.4802438,36.9207315 17.1198051,33.6948537 14.6496728,31.2685241 C14.1214056,30.7495376 14.1214056,29.9081294 14.6496728,29.3891983 C15.1780527,28.8702672 16.0346335,28.8702672 16.5630134,29.3891983 C19.5442757,32.3175157 21.1861262,36.210828 21.1861262,40.3520333 C21.1861262,44.4932387 19.5442757,48.3864956 16.5630134,51.314813 C16.2989081,51.5742231 15.9526115,51.7039006 15.6063713,51.7039006 Z M10.800386,49.1981698 C10.4539767,49.1981698 10.107962,49.0683817 9.84368746,48.8090269 C9.31530756,48.2900957 9.31530756,47.448743 9.84368746,46.9297565 C13.5362022,43.3027757 13.5362022,37.4013463 9.84368746,33.7744209 C9.31530756,33.2554344 9.31530756,32.4140263 9.84368746,31.8950952 C10.3719546,31.3762194 11.2286482,31.3761641 11.7569154,31.8950952 C14.0567463,34.1538741 15.3233811,37.1572737 15.3233811,40.3519226 C15.3233811,43.5465715 14.0567463,46.5499711 11.7569154,48.8089161 C11.49281,49.0683817 11.1465134,49.1981698 10.800386,49.1981698 Z M5.99428795,46.6923283 C5.64799139,46.6923283 5.30180756,46.5626509 5.03758942,46.3031854 C4.50920952,45.7841989 4.50920952,44.9429015 5.03758942,44.423915 C7.32355266,42.1787019 7.32355266,38.5254202 5.03758942,36.2801517 C4.50920952,35.7611652 4.50920952,34.919757 5.03758942,34.4008259 C5.56596933,33.8818948 6.42255021,33.8818948 6.95093011,34.4008259 C10.2917929,37.6823509 10.2917929,43.0217711 6.95093011,46.3032961 C6.68676835,46.5626509 6.34052815,46.6923283 5.99428795,46.6923283 Z M1.20262129,43.8173283 C0.856324718,43.8173283 0.466658838,43.7765511 0.245922758,43.4282961 C-0.119151318,42.8523193 -0.0790927121,42.3658468 0.375014739,41.9315582 C2.08211211,40.2989647 2.43693999,40.4464355 0.685958342,39.1345866 C0.130127805,38.718154 -0.282457144,37.794757 0.245922758,37.2758259 C0.77430266,36.7568948 1.63090095,36.7568478 2.15926344,37.2758259 C2.87890089,37.9826817 3.95697021,38.7725292 4.02081299,40.3520437 C4.08465576,41.9315582 3.00646366,42.5961432 2.15926344,43.4282961 C1.89513891,43.6877295 1.54886148,43.8173283 1.20262129,43.8173283 Z" id="Shape-Copy-2"></path>
            </g>
        </g>
    </g>
</svg>