<?xml version="1.0" encoding="UTF-8" standalone="no"?>
<svg width="59px" height="18px" viewBox="0 0 59 18" version="1.1" xmlns="http://www.w3.org/2000/svg" xmlns:xlink="http://www.w3.org/1999/xlink">
    <!-- Generator: Sketch 43.2 (39069) - http://www.bohemiancoding.com/sketch -->
    <title>Visa</title>
    <desc>Created with Sketch.</desc>
    <defs></defs>
    <g id="Finance-credit-card" stroke="none" stroke-width="1" fill="none" fill-rule="evenodd" opacity="0.7">
        <g id="Finance-credit-card---card-page---1200" transform="translate(-311.000000, -456.000000)" fill="#939494">
            <g id="Group-30" transform="translate(118.000000, 253.000000)">
                <g id="Group-23" transform="translate(53.000000, 200.000000)">
                    <g id="Visa" transform="translate(140.000000, 3.000000)">
                        <polyline id="Fill-2" points="20.62125 17.7226667 23.5784915 0.321666667 28.308017 0.321666667 25.3487813 17.7226667 20.62125 17.7226667"></polyline>
                        <path d="M42.5022443,0.75 C41.5652472,0.397333333 40.0970966,0.0193333333 38.263321,0.0193333333 C33.5903011,0.0193333333 30.2980142,2.37933333 30.2700937,5.76166667 C30.2438352,8.262 32.6203977,9.657 34.4142869,10.4893333 C36.2550426,11.342 36.8742784,11.886 36.865304,12.6476667 C36.8536705,13.814 35.3951591,14.347 34.0356989,14.347 C32.1427585,14.347 31.1372898,14.0833333 29.5840483,13.4336667 L28.9744517,13.157 L28.3106761,17.0523333 C29.4155284,17.538 31.458375,17.959 33.579,17.9806667 C38.5508352,17.9806667 41.7779744,15.6476667 41.8148693,12.0356667 C41.8328182,10.0563333 40.5724091,8.54966667 37.8441818,7.308 C36.190892,6.503 35.1784432,5.96566667 35.1890795,5.15066667 C35.1890795,4.42733333 36.0459716,3.654 37.897696,3.654 C39.4442898,3.63 40.5644318,3.968 41.4372784,4.32066667 L41.861071,4.52133333 L42.5022443,0.75" id="Fill-3"></path>
                        <path d="M54.6300256,0.338333333 L50.9754375,0.338333333 C49.8433295,0.338333333 48.9960767,0.648 48.4988267,1.78133333 L41.4748381,17.7283333 L46.4413551,17.7283333 C46.4413551,17.7283333 47.253375,15.584 47.4371847,15.1133333 C47.9799716,15.1133333 52.8042273,15.1206667 53.493929,15.1206667 C53.6355256,15.7296667 54.0696222,17.7283333 54.0696222,17.7283333 L58.4581193,17.7283333 L54.6300256,0.338333333 M48.7983068,11.554 C49.1891932,10.5513333 50.6826051,6.68966667 50.6826051,6.68966667 C50.6543523,6.736 51.0708324,5.68233333 51.3094858,5.029 L51.6292415,6.52933333 C51.6292415,6.52933333 52.5349943,10.683 52.7241222,11.554 L48.7983068,11.554" id="Fill-4"></path>
                        <path d="M16.6545511,0.334333333 L12.0240767,12.2006667 L11.5308153,9.789 C10.6689375,7.009 7.98325568,3.99733333 4.98047727,2.48966667 L9.21441477,17.7076667 L14.2184915,17.702 L21.6642784,0.334333333 L16.6545511,0.334333333" id="Fill-5"></path>
                        <path d="M7.72864773,0.323666667 L0.102375,0.323666667 L0.0418806818,0.685666667 C5.97530966,2.126 9.901125,5.60666667 11.5308153,9.789 L9.87253977,1.79266667 C9.58602273,0.690666667 8.75572159,0.362 7.72864773,0.323666667" id="Fill-6"></path>
                    </g>
                </g>
            </g>
        </g>
    </g>
</svg>